<svg width="16" height="16" viewBox="0 0 16 16" fill="none" xmlns="http://www.w3.org/2000/svg">
<path d="M9.33366 8.99992V5.33325C9.33366 3.86049 8.13973 2.66659 6.66699 2.66659C5.19423 2.66659 4.00033 3.86049 4.00033 5.33325V8.99992C4.00033 11.3932 5.94043 13.3333 8.33366 13.3333C10.7269 13.3333 12.667 11.3932 12.667 8.99992V2.66659H14.0003V8.99992C14.0003 12.1295 11.4633 14.6666 8.33366 14.6666C5.20405 14.6666 2.66699 12.1295 2.66699 8.99992V5.33325C2.66699 3.12411 4.45785 1.33325 6.66699 1.33325C8.87613 1.33325 10.667 3.12411 10.667 5.33325V8.99992C10.667 10.2886 9.62232 11.3333 8.33366 11.3333C7.04499 11.3333 6.00033 10.2886 6.00033 8.99992V5.33325H7.33366V8.99992C7.33366 9.55219 7.78139 9.99992 8.33366 9.99992C8.88593 9.99992 9.33366 9.55219 9.33366 8.99992Z" fill="#727272"/>
</svg>
