<svg width="16" height="17" viewBox="0 0 16 17" fill="none" xmlns="http://www.w3.org/2000/svg">
<path d="M5.99967 1.16675V2.50008H9.99967V1.16675H11.333V2.50008H13.9997C14.3679 2.50008 14.6663 2.79856 14.6663 3.16675V13.8334C14.6663 14.2016 14.3679 14.5001 13.9997 14.5001H1.99967C1.63149 14.5001 1.33301 14.2016 1.33301 13.8334V3.16675C1.33301 2.79856 1.63149 2.50008 1.99967 2.50008H4.66634V1.16675H5.99967ZM13.333 7.83341H2.66634V13.1667H13.333V7.83341ZM4.66634 3.83341H2.66634V6.50008H13.333V3.83341H11.333V5.16675H9.99967V3.83341H5.99967V5.16675H4.66634V3.83341Z" fill="#727272"/>
</svg>
