<svg width="16" height="17" viewBox="0 0 16 17" fill="none" xmlns="http://www.w3.org/2000/svg">
<path d="M2.62988 3.5H13.3693C13.4662 3.5 13.561 3.52814 13.6422 3.58099C13.7233 3.63384 13.7874 3.70914 13.8266 3.79772C13.8658 3.88631 13.8784 3.98437 13.8629 4.07999C13.8474 4.1756 13.8045 4.26466 13.7393 4.33634L9.62964 8.85697C9.54597 8.949 9.49961 9.06892 9.49961 9.1933V12.7324C9.49961 12.8147 9.47928 12.8958 9.44044 12.9683C9.4016 13.0409 9.34545 13.1028 9.27696 13.1484L7.27696 14.4818C7.20166 14.532 7.11414 14.5608 7.02375 14.5652C6.93336 14.5695 6.84347 14.5493 6.76368 14.5066C6.68389 14.4639 6.61718 14.4003 6.57068 14.3227C6.52417 14.245 6.49961 14.1562 6.49961 14.0657V9.1933C6.49961 9.06892 6.45325 8.949 6.36958 8.85697L2.25991 4.33634C2.19475 4.26466 2.15182 4.1756 2.13632 4.07999C2.12083 3.98437 2.13344 3.88631 2.17263 3.79772C2.21181 3.70914 2.27589 3.63384 2.35706 3.58099C2.43824 3.52814 2.53302 3.5 2.62988 3.5V3.5Z" stroke="black" stroke-width="1.5" stroke-linecap="round" stroke-linejoin="round"/>
</svg>
